<?xml version="1.0" standalone="no"?>
<!DOCTYPE svg PUBLIC "-//W3C//DTD SVG 20010904//EN"
 "http://www.w3.org/TR/2001/REC-SVG-20010904/DTD/svg10.dtd">
<svg version="1.0" xmlns="http://www.w3.org/2000/svg"
 width="512.000000pt" height="512.000000pt" viewBox="0 0 512.000000 512.000000"
 preserveAspectRatio="xMidYMid meet">

<g transform="translate(0.000000,512.000000) scale(0.100000,-0.100000)"
fill="#000000" stroke="none">
<path d="M3464 4832 c-25 -2 -81 -54 -318 -291 l-287 -287 0 -414 0 -414 289
-288 288 -289 414 0 414 0 288 289 289 288 0 414 0 414 -288 288 -289 289
-385 2 c-211 1 -398 1 -415 -1z"/>
<path d="M777 3835 l-497 -995 1000 0 1000 0 -497 995 c-274 547 -500 995
-503 995 -3 0 -229 -448 -503 -995z"/>
<path d="M2860 1280 l0 -1000 995 0 995 0 0 1000 0 1000 -995 0 -995 0 0
-1000z"/>
<path d="M756 2104 c-14 -26 -26 -49 -26 -53 0 -3 -16 -28 -35 -55 -19 -27
-35 -53 -35 -57 0 -7 -41 -80 -72 -127 -10 -15 -31 -52 -48 -82 -17 -30 -44
-77 -60 -105 -16 -27 -44 -77 -61 -110 -17 -33 -37 -67 -44 -75 -7 -8 -30 -48
-50 -88 l-38 -73 28 -56 c16 -31 39 -71 52 -90 13 -19 37 -60 53 -91 17 -32
44 -79 60 -107 16 -27 43 -75 60 -105 17 -30 36 -64 43 -74 46 -72 77 -126 77
-133 0 -5 12 -25 26 -46 14 -21 41 -66 59 -100 l34 -62 501 0 502 0 35 65 c20
36 43 76 53 90 10 14 29 48 44 75 14 28 37 68 50 90 21 34 45 75 126 216 8 15
28 51 44 80 16 30 41 72 55 94 15 22 40 66 56 98 l28 57 -28 56 c-16 31 -39
72 -52 91 -13 19 -38 62 -56 95 -18 34 -39 72 -47 87 -8 14 -34 60 -58 101
-24 41 -54 93 -68 115 -13 22 -36 63 -50 90 -15 28 -35 62 -45 76 -10 14 -34
55 -53 90 l-35 64 -499 3 -500 2 -26 -46z"/>
</g>
</svg>
